# xmcd
#
# Track frame offsets:
#	150
#	10812
#	28333
#	43809
#	59972
#	71952
#	84825
#	104284
#	121973
#	135851
#	157508
#
# Disc length: 2365 seconds
#
# Revision: 0
# Processed by: cddbd v1.5.2PL0 Copyright (c) Steve Scherf et al.
# Submitted via: audiograbber 1.83.01
#
DISCID=8d093b0b
DTITLE=Garth Brooks - Ropin' The Wind
DYEAR=1991
DGENRE=Country
TTITLE0=Against The Grain
TTITLE1=Rodeo
TTITLE2=What She's Doing Now
TTITLE3=Burning Bridges
TTITLE4=Which One Of Them
TTITLE5=Papa Loved Mama
TTITLE6=Shameless
TTITLE7=Cold Shoulder
TTITLE8=We Bury The Hatchet
TTITLE9=In Lonesome Dove
TTITLE10=The River
EXTD=
EXTT0=
EXTT1=
EXTT2=
EXTT3=
EXTT4=
EXTT5=
EXTT6=
EXTT7=
EXTT8=
EXTT9=
EXTT10=
PLAYORDER=
